# xmcd CD database file
#
# Track frame offsets:
#	150
#	12599
#	25956
#	39187
#	53392
#	63603
#	73867
#	84244
#	95739
#	106695
#	112805
#	122774
#	137250
#	147088
#	159628
#
# Disc length: 2276 seconds
#
# Revision: 0
# Processed by: cddbd v1.5.2PL0 Copyright (c) Steve Scherf et al.
# Submitted via: CDex 1.51
#
DISCID=bc08e20f
DTITLE=Varios - The best of country
DYEAR=1900
DGENRE=Country
TTITLE0=Reuben James (Kenny Rogers)
TTITLE1=Rose garden (Lynn Anderson)
TTITLE2=Cotton field (Credence)
TTITLE3=Rhinestone cowboy (Glen Campell)
TTITLE4=Release me (Dolly Parton)
TTITLE5=Long neck bottle (Billy Joley)
TTITLE6=White lightin (Waylon Jennigs)
TTITLE7=Me and Bobbey Mc Ghee (Kenny Rogers)
TTITLE8=Heaven's just a sin away (Lynn Anderson)
TTITLE9=The figtin' side of me (Merle Haggard)
TTITLE10=Six day on the road (Dave Dudley)
TTITLE11=Summertime blues (Billy Joel)
TTITLE12=Let's pretend (Willie Nelson)
TTITLE13=Folson prision blues (Johnny Cash)
TTITLE14=Last thin on my mind (Anne Murray)
EXTD=
EXTT0=
EXTT1=
EXTT2=
EXTT3=
EXTT4=
EXTT5=
EXTT6=
EXTT7=
EXTT8=
EXTT9=
EXTT10=
EXTT11=
EXTT12=
EXTT13=
EXTT14=
PLAYORDER=
